<svg width="64" height="64" viewBox="0 0 64 64" fill="none" xmlns="http://www.w3.org/2000/svg">
<path d="M2.09372 61.1286C1.18833 59.7248 0.735632 58.321 0.735632 56.8534C0.735632 54.9392 1.58444 53.0887 3.28205 51.2383L44.0813 22.9711C47.3634 20.7378 49.0044 18.6959 49.0044 16.9093C49.0044 14.676 46.5146 13.5912 41.5915 13.655H6.05482C2.03714 13.7188 0 11.4855 0 7.01894C0 4.97707 0.509284 3.25424 1.58444 1.91426C2.71618 0.638086 4.18744 0 6.05482 0H50.3625C54.4368 0 57.7754 1.85045 60.435 5.61515C62.8117 8.9332 64 12.8255 64 17.2921C64 22.3968 62.4156 26.0339 59.2467 28.2034L11.2608 62.341C9.73298 63.4257 8.26172 64 6.84704 64C4.92308 63.9362 3.33864 63.0429 2.09372 61.1286Z" fill="white"/>
</svg>
