<svg width="181" height="45" viewBox="0 0 181 45" fill="none" xmlns="http://www.w3.org/2000/svg">
<path d="M1 0.5H0.5V1V44V44.5H1H180H180.5V44V1V0.5H180H1Z" stroke="white"/>
<path fill-rule="evenodd" clip-rule="evenodd" d="M90 8H8V38H90V8ZM24.438 23.6C24.03 23.06 23.466 22.676 22.746 22.448C23.274 22.172 23.682 21.794 23.97 21.314C24.27 20.834 24.42 20.288 24.42 19.676C24.42 18.668 24.006 17.87 23.178 17.282C22.362 16.694 21.186 16.4 19.65 16.4H13.494V29H20.01C21.654 29 22.902 28.706 23.754 28.118C24.618 27.518 25.05 26.666 25.05 25.562C25.05 24.782 24.846 24.128 24.438 23.6ZM16.392 21.566V18.596H19.29C20.01 18.596 20.556 18.722 20.928 18.974C21.3 19.214 21.486 19.58 21.486 20.072C21.486 20.564 21.3 20.936 20.928 21.188C20.556 21.44 20.01 21.566 19.29 21.566H16.392ZM21.522 26.426C21.138 26.678 20.562 26.804 19.794 26.804H16.392V23.69H19.794C21.342 23.69 22.116 24.212 22.116 25.256C22.116 25.784 21.918 26.174 21.522 26.426ZM37.3737 29V26.66H30.5157V23.744H36.3657V21.476H30.5157V18.74H37.1397V16.4H27.6177V29H37.3737ZM42.5018 26.3H48.3518L49.4678 29H52.5278L46.8938 16.4H44.0138L38.3978 29H41.3858L42.5018 26.3ZM45.4358 19.262L47.4338 24.086H43.4378L45.4358 19.262ZM55.3174 27.722C56.3254 28.718 57.7294 29.216 59.5294 29.216C61.3294 29.216 62.7274 28.718 63.7234 27.722C64.7314 26.726 65.2354 25.304 65.2354 23.456V16.4H62.3554V23.348C62.3554 24.512 62.1154 25.37 61.6354 25.922C61.1554 26.462 60.4594 26.732 59.5474 26.732C57.6754 26.732 56.7394 25.604 56.7394 23.348V16.4H53.8234V23.456C53.8234 25.304 54.3214 26.726 55.3174 27.722ZM66.844 18.776H70.876V29H73.792V18.776H77.824V16.4H66.844V18.776ZM82.669 16.4H79.753V29H82.669V16.4Z" fill="white"/>
<path d="M113.8 31.5C113.346 32.06 112.793 32.4867 112.14 32.78C111.5 33.0733 110.793 33.22 110.02 33.22C108.98 33.22 108.04 32.9933 107.2 32.54C106.36 32.1 105.4 31.3133 104.32 30.18C103.053 30.02 101.92 29.6133 100.92 28.96C99.9331 28.3067 99.1598 27.4667 98.5998 26.44C98.0531 25.4 97.7798 24.2533 97.7798 23C97.7798 21.6267 98.1065 20.3933 98.7598 19.3C99.4265 18.1933 100.34 17.3267 101.5 16.7C102.673 16.0733 103.986 15.76 105.44 15.76C106.893 15.76 108.2 16.0733 109.36 16.7C110.52 17.3267 111.433 18.1933 112.1 19.3C112.766 20.3933 113.1 21.6267 113.1 23C113.1 24.6267 112.64 26.0533 111.72 27.28C110.813 28.5067 109.606 29.36 108.1 29.84C108.433 30.1867 108.753 30.4333 109.06 30.58C109.38 30.74 109.72 30.82 110.08 30.82C110.946 30.82 111.706 30.4733 112.36 29.78L113.8 31.5ZM101.06 23C101.06 23.8667 101.246 24.64 101.62 25.32C102.006 26 102.533 26.5333 103.2 26.92C103.866 27.2933 104.613 27.48 105.44 27.48C106.266 27.48 107.013 27.2933 107.68 26.92C108.346 26.5333 108.866 26 109.24 25.32C109.626 24.64 109.82 23.8667 109.82 23C109.82 22.1333 109.626 21.36 109.24 20.68C108.866 20 108.346 19.4733 107.68 19.1C107.013 18.7133 106.266 18.52 105.44 18.52C104.613 18.52 103.866 18.7133 103.2 19.1C102.533 19.4733 102.006 20 101.62 20.68C101.246 21.36 101.06 22.1333 101.06 23Z" fill="white"/>
<path d="M122.155 30.24C120.155 30.24 118.595 29.6867 117.475 28.58C116.368 27.4733 115.815 25.8933 115.815 23.84V16H119.055V23.72C119.055 26.2267 120.095 27.48 122.175 27.48C123.188 27.48 123.961 27.18 124.495 26.58C125.028 25.9667 125.295 25.0133 125.295 23.72V16H128.495V23.84C128.495 25.8933 127.935 27.4733 126.815 28.58C125.708 29.6867 124.155 30.24 122.155 30.24Z" fill="white"/>
<path d="M142.937 27.4V30H132.097V16H142.677V18.6H135.317V21.64H141.817V24.16H135.317V27.4H142.937Z" fill="white"/>
<path d="M152.134 30.24C150.134 30.24 148.574 29.6867 147.454 28.58C146.348 27.4733 145.794 25.8933 145.794 23.84V16H149.034V23.72C149.034 26.2267 150.074 27.48 152.154 27.48C153.168 27.48 153.941 27.18 154.474 26.58C155.008 25.9667 155.274 25.0133 155.274 23.72V16H158.474V23.84C158.474 25.8933 157.914 27.4733 156.794 28.58C155.688 29.6867 154.134 30.24 152.134 30.24Z" fill="white"/>
<path d="M172.916 27.4V30H162.076V16H172.656V18.6H165.296V21.64H171.796V24.16H165.296V27.4H172.916Z" fill="white"/>
</svg>
