<svg width="64" height="67" viewBox="0 0 64 67" fill="none" xmlns="http://www.w3.org/2000/svg">
<path d="M57.7674 42.3063C56.093 42.3063 54.6359 41.687 53.3956 40.4478C52.2174 39.2087 51.628 37.7335 51.628 36.0224V7.61173C51.628 5.84147 52.2174 4.33721 53.3956 3.09807C54.5738 1.85893 56.0314 1.23914 57.7674 1.23914C59.504 1.23914 60.9616 1.85893 62.1398 3.09807C63.318 4.33721 63.9073 5.84147 63.9073 7.61173L64 36.0224C64 37.7335 63.3801 39.2087 62.1398 40.4478C60.9616 41.687 59.504 42.3063 57.7674 42.3063ZM58.9767 64.7873C57.6127 65.7313 56.2482 66.2033 54.8838 66.2033C53.0235 66.2033 51.2249 65.3184 49.4884 63.5481L22.2328 20.7994C20.0621 17.3771 18.1088 15.6659 16.3723 15.6659C14.2016 15.6659 13.1476 18.262 13.2097 23.4545V60.6274C13.2097 64.8755 11.0701 67 6.79085 67C4.80646 67 3.16307 66.4393 1.86068 65.3184C0.620382 64.1379 0 62.5746 0 60.6274V14.2499C0 10.0013 1.7986 6.49082 5.39534 3.71742C8.62049 1.23914 12.3724 0 16.6512 0C21.5508 0 25.0544 1.65248 27.163 4.95656L60.0933 55.2284C61.1474 56.8218 61.6746 58.3556 61.6746 59.8307C61.6746 61.837 60.7753 63.489 58.9767 64.7873Z" fill="white"/>
</svg>
