<svg width="81" height="81" viewBox="0 0 81 81" fill="none" xmlns="http://www.w3.org/2000/svg">
<path d="M2.64987 77.3659C1.50398 75.5892 0.931034 73.8126 0.931034 71.9551C0.931034 69.5324 2.00531 67.1904 4.15385 64.8485L55.7905 29.0728C59.9443 26.2463 62.0212 23.662 62.0212 21.4008C62.0212 18.5743 58.87 17.2014 52.6393 17.2822H7.66313C2.57825 17.3629 0 14.5364 0 8.88335C0 6.2991 0.644562 4.11864 2.00531 2.42273C3.43767 0.807577 5.29973 0 7.66313 0H63.7401C68.8966 0 73.122 2.34197 76.4881 7.10668C79.496 11.3061 81 16.2323 81 21.8853C81 28.346 78.9947 32.9492 74.9841 35.6949L14.252 78.9003C12.3183 80.2732 10.4562 81 8.66578 81C6.23077 80.9192 4.22546 79.7886 2.64987 77.3659Z" fill="white"/>
</svg>
