<svg width="78" height="82" viewBox="0 0 78 82" fill="none" xmlns="http://www.w3.org/2000/svg">
<path d="M70.4041 51.7779C68.3634 51.7779 66.5875 51.0199 65.0759 49.5033C63.6399 47.9868 62.9217 46.1814 62.9217 44.0871V9.31585C62.9217 7.14926 63.6399 5.30823 65.0759 3.79167C66.5118 2.27511 68.2883 1.51656 70.4041 1.51656C72.5205 1.51656 74.2969 2.27511 75.7329 3.79167C77.1688 5.30823 77.8871 7.14926 77.8871 9.31585L78 44.0871C78 46.1814 77.2445 47.9868 75.7329 49.5033C74.2969 51.0199 72.5205 51.7779 70.4041 51.7779ZM71.8779 79.2919C70.2155 80.4473 68.5525 81.025 66.8896 81.025C64.6224 81.025 62.4304 79.9419 60.314 77.7753L27.0962 25.4559C24.4507 21.2675 22.0701 19.1732 19.9537 19.1732C17.3082 19.1732 16.0236 22.3505 16.0993 28.7056V74.2007C16.0993 79.3999 13.4916 82 8.27635 82C5.85787 82 3.85499 81.3138 2.26771 79.9419C0.75609 78.4972 0 76.5838 0 74.2007V17.4402C0 12.2405 2.19204 7.94399 6.57557 4.54968C10.5062 1.51656 15.0789 0 20.2936 0C26.265 0 30.535 2.02244 33.1049 6.06623L73.2387 67.5929C74.5234 69.543 75.1659 71.4202 75.1659 73.2256C75.1659 75.6811 74.0699 77.703 71.8779 79.2919Z" fill="white"/>
</svg>
