<svg width="44" height="44" viewBox="0 0 44 44" fill="none" xmlns="http://www.w3.org/2000/svg">
<rect width="44" height="44" rx="10" fill="#2E46C2"/>
<path fill-rule="evenodd" clip-rule="evenodd" d="M24.1213 21.2331H26.8891C27.3088 21.2331 27.6386 20.8861 27.6386 20.4677C27.6386 20.0391 27.3088 19.7024 26.8891 19.7024H24.1213C23.7016 19.7024 23.3719 20.0391 23.3719 20.4677C23.3719 20.8861 23.7016 21.2331 24.1213 21.2331ZM30.1766 15.9275C30.7861 15.9275 31.1858 16.1418 31.5855 16.6112C31.9852 17.0807 32.0551 17.7542 31.9652 18.3655L31.0159 25.06C30.8361 26.3469 29.7569 27.2949 28.4879 27.2949H17.5864C16.2574 27.2949 15.1583 26.255 15.0484 24.908L14.1291 13.7834L12.6203 13.5181C12.2206 13.4466 11.9408 13.0486 12.0107 12.6404C12.0807 12.223 12.4704 11.9465 12.8801 12.0087L15.2632 12.3751C15.6029 12.4374 15.8527 12.7221 15.8827 13.069L16.0726 15.355C16.1025 15.6826 16.3623 15.9275 16.6821 15.9275H30.1766ZM17.4263 28.9079C16.587 28.9079 15.9075 29.6018 15.9075 30.459C15.9075 31.3061 16.587 32 17.4263 32C18.2557 32 18.9351 31.3061 18.9351 30.459C18.9351 29.6018 18.2557 28.9079 17.4263 28.9079ZM28.6676 28.9079C27.8282 28.9079 27.1487 29.6018 27.1487 30.459C27.1487 31.3061 27.8282 32 28.6676 32C29.4969 32 30.1764 31.3061 30.1764 30.459C30.1764 29.6018 29.4969 28.9079 28.6676 28.9079Z" fill="white"/>
</svg>
