<svg width="44" height="44" viewBox="0 0 44 44" fill="none" xmlns="http://www.w3.org/2000/svg">
<rect width="44" height="44" rx="10" fill="#2E46C2"/>
<path fill-rule="evenodd" clip-rule="evenodd" d="M18.4277 13C18.8477 13 19.1887 13.3344 19.1887 13.7472C19.1887 14.1591 18.8487 14.4935 18.4277 14.4935L16.7987 14.4944C15.4467 14.4964 14.3467 15.576 14.3467 16.9028V18.762C14.3467 19.1739 14.0047 19.5092 13.5847 19.5092C13.1647 19.5092 12.8237 19.1739 12.8237 18.762V16.9028C12.8237 14.7533 14.6067 13.0029 16.7977 13.001L18.4267 13H18.4277ZM25.6006 13.0003H27.1936C29.3906 13.0003 31.1766 14.7516 31.1766 16.906V18.7623C31.1766 19.1742 30.8366 19.5095 30.4156 19.5095C29.9956 19.5095 29.6546 19.1742 29.6546 18.7623V16.906C29.6546 15.5754 28.5506 14.4928 27.1936 14.4928H25.6006C25.1806 14.4928 24.8396 14.1594 24.8396 13.7475C24.8396 13.3347 25.1806 13.0003 25.6006 13.0003ZM24.7625 16.7427H19.2385C17.9745 16.7554 16.9585 17.7684 16.9695 19.0088V20.2542C16.9725 20.3993 17.0915 20.518 17.2395 20.5229H26.7595C26.9085 20.5189 27.0275 20.4003 27.0325 20.2542V19.0088C27.0335 18.4097 26.7975 17.8341 26.3715 17.4055C25.9485 16.9809 25.3675 16.7427 24.7625 16.7427ZM11.762 22.0412H32.239C32.659 22.0412 33 22.3756 33 22.7885C33 23.2003 32.659 23.5337 32.239 23.5337H31.177V27.0933C31.177 29.2486 29.39 31 27.194 31H25.601C25.18 31 24.839 30.6656 24.839 30.2528C24.839 29.8409 25.18 29.5065 25.601 29.5065H27.194C28.551 29.5065 29.655 28.4249 29.655 27.0933V23.5337H27.032V24.5251C27.042 25.7656 26.027 26.7795 24.762 26.7913H19.238C17.974 26.7795 16.959 25.7656 16.969 24.5251V23.5337H14.346V27.0972C14.346 28.424 15.447 29.5036 16.8 29.5056L18.428 29.5065C18.848 29.5065 19.189 29.8409 19.189 30.2528C19.188 30.6656 18.848 31 18.427 31L16.798 30.999C14.607 30.9971 12.823 29.2467 12.823 27.0972V23.5337H11.762C11.342 23.5337 11 23.2003 11 22.7885C11 22.3756 11.342 22.0412 11.762 22.0412Z" fill="white"/>
</svg>
