<svg width="44" height="44" viewBox="0 0 44 44" fill="none" xmlns="http://www.w3.org/2000/svg">
<rect width="44" height="44" rx="10" fill="#2E46C2"/>
<path fill-rule="evenodd" clip-rule="evenodd" d="M17.3305 12.0004H26.6695C30.0705 12.0004 31.9905 13.9294 32.0005 17.3304V26.6704C32.0005 30.0704 30.0705 32.0004 26.6695 32.0004H17.3305C13.9295 32.0004 12.0005 30.0704 12.0005 26.6704V17.3304C12.0005 13.9294 13.9295 12.0004 17.3305 12.0004ZM22.0495 27.8604C22.4805 27.8604 22.8395 27.5404 22.8795 27.1104V16.9204C22.9195 16.6104 22.7705 16.2994 22.5005 16.1304C22.2195 15.9604 21.8795 15.9604 21.6105 16.1304C21.3395 16.2994 21.1905 16.6104 21.2195 16.9204V27.1104C21.2705 27.5404 21.6295 27.8604 22.0495 27.8604ZM26.6505 27.8604C27.0705 27.8604 27.4295 27.5404 27.4805 27.1104V23.8304C27.5095 23.5094 27.3605 23.2104 27.0895 23.0404C26.8205 22.8704 26.4805 22.8704 26.2005 23.0404C25.9295 23.2104 25.7805 23.5094 25.8205 23.8304V27.1104C25.8605 27.5404 26.2195 27.8604 26.6505 27.8604ZM18.2195 27.1104C18.1795 27.5404 17.8205 27.8604 17.3895 27.8604C16.9595 27.8604 16.5995 27.5404 16.5605 27.1104V20.2004C16.5305 19.8894 16.6795 19.5804 16.9505 19.4104C17.2195 19.2404 17.5605 19.2404 17.8305 19.4104C18.0995 19.5804 18.2505 19.8894 18.2195 20.2004V27.1104Z" fill="white"/>
</svg>
