<svg width="44" height="44" viewBox="0 0 44 44" fill="none" xmlns="http://www.w3.org/2000/svg">
<rect width="44" height="44" rx="10" fill="#2E46C2"/>
<path d="M19.1348 30.7733V27.7156C19.1348 26.9351 19.7722 26.3023 20.5584 26.3023H23.4326C23.8102 26.3023 24.1723 26.4512 24.4393 26.7163C24.7063 26.9813 24.8563 27.3408 24.8563 27.7156V30.7733C24.8539 31.0978 24.9821 31.4099 25.2124 31.6402C25.4427 31.8705 25.7561 32 26.0829 32H28.0438C28.9596 32.0023 29.8388 31.6428 30.4872 31.0008C31.1356 30.3588 31.5 29.487 31.5 28.5778V19.8669C31.5 19.1325 31.1721 18.4358 30.6046 17.9647L23.934 12.6759C22.7737 11.7486 21.1111 11.7785 19.9854 12.747L13.467 17.9647C12.8727 18.422 12.5176 19.1206 12.5 19.8669V28.5689C12.5 30.4639 14.0474 32 15.9562 32H17.8723C18.5512 32 19.103 31.4562 19.1079 30.7822L19.1348 30.7733Z" fill="white"/>
</svg>
