<svg width="24" height="24" viewBox="0 0 24 24" fill="none" xmlns="http://www.w3.org/2000/svg">
<path d="M22.2075 2.45526C22.0913 2.35492 21.9499 2.28819 21.7986 2.26225C21.6473 2.23631 21.4917 2.25216 21.3487 2.30807L2.34937 9.74339C2.0801 9.84809 1.85214 10.0374 1.6998 10.2829C1.54745 10.5284 1.47898 10.8167 1.50468 11.1045C1.53037 11.3922 1.64886 11.6638 1.84229 11.8784C2.03572 12.093 2.29362 12.239 2.57718 12.2943L7.49999 13.2609V18.75C7.49902 19.0489 7.58787 19.3413 7.75503 19.5892C7.92219 19.8371 8.15995 20.0291 8.43749 20.1403C8.71461 20.2534 9.01936 20.2806 9.31213 20.2182C9.60489 20.1559 9.87211 20.0068 10.0791 19.7906L12.4528 17.3287L16.2187 20.625C16.4904 20.866 16.8409 20.9993 17.2041 21C17.3632 20.9998 17.5214 20.9748 17.6728 20.9259C17.9203 20.8474 18.1428 20.7054 18.3183 20.5141C18.4938 20.3228 18.6162 20.0889 18.6731 19.8356L22.4784 3.2812C22.5125 3.1319 22.5052 2.97616 22.4575 2.83066C22.4098 2.68516 22.3234 2.55539 22.2075 2.45526ZM16.4756 5.83026L8.07656 11.8453L3.42656 10.9331L16.4756 5.83026ZM8.99999 18.75V14.2987L11.3241 16.3368L8.99999 18.75ZM17.2059 19.5L9.45468 12.7031L20.6109 4.70714L17.2059 19.5Z" fill="#2E46C2"/>
</svg>
