<svg width="20" height="19" viewBox="0 0 20 19" fill="none" xmlns="http://www.w3.org/2000/svg">
<path d="M18.0809 1.94377C17.9889 1.86434 17.877 1.81151 17.7572 1.79097C17.6374 1.77044 17.5143 1.78298 17.4011 1.82725L2.35991 7.71354C2.14674 7.79643 1.96627 7.94633 1.84567 8.14066C1.72506 8.335 1.67085 8.56325 1.6912 8.79106C1.71154 9.01887 1.80534 9.23391 1.95847 9.40379C2.1116 9.57368 2.31578 9.68923 2.54026 9.73303L6.43749 10.4982V14.8437C6.43672 15.0804 6.50706 15.3119 6.63939 15.5082C6.77173 15.7044 6.95995 15.8564 7.17968 15.9444C7.39906 16.034 7.64032 16.0555 7.87209 16.0061C8.10386 15.9567 8.31542 15.8388 8.47925 15.6676L10.3585 13.7186L13.3398 16.3281C13.5549 16.5189 13.8324 16.6245 14.1199 16.625C14.2459 16.6249 14.3711 16.6051 14.491 16.5664C14.6869 16.5042 14.8631 16.3918 15.002 16.2404C15.1409 16.0889 15.2378 15.9037 15.2829 15.7032L18.2954 2.59764C18.3224 2.47945 18.3166 2.35615 18.2789 2.24096C18.2411 2.12577 18.1726 2.02304 18.0809 1.94377ZM13.5432 4.61565L6.89393 9.37752L3.21268 8.65538L13.5432 4.61565ZM7.62499 14.8437V11.3198L9.46487 12.9333L7.62499 14.8437ZM14.1214 15.4375L7.98495 10.0566L16.817 3.72651L14.1214 15.4375Z" fill="white"/>
</svg>
