<svg width="164" height="29" viewBox="0 0 164 29" fill="none" xmlns="http://www.w3.org/2000/svg">
<path d="M0.048807 8.65694C0.0704991 7.46435 0.276573 6.3463 0.667029 5.30278C1.07918 4.23796 1.66486 3.32222 2.42408 2.55555C3.1833 1.76759 4.11606 1.15 5.22235 0.702778C6.32864 0.234259 7.59763 0 9.0293 0C10.461 0 11.73 0.234259 12.8362 0.702778C13.9425 1.15 14.8753 1.76759 15.6345 2.55555C16.3937 3.32222 16.9686 4.23796 17.359 5.30278C17.7712 6.3463 17.9881 7.46435 18.0098 8.65694C18.0749 10.5523 18.0749 12.4477 18.0098 14.3431C17.9664 15.5356 17.7386 16.6644 17.3265 17.7292C16.936 18.7727 16.3612 19.6884 15.602 20.4764C14.8428 21.2644 13.91 21.8819 12.8037 22.3292C11.7191 22.7764 10.461 23 9.0293 23C7.59763 23 6.32864 22.7764 5.22235 22.3292C4.13775 21.8819 3.21584 21.2644 2.45662 20.4764C1.6974 19.6884 1.11172 18.7727 0.699567 17.7292C0.309111 16.6644 0.092191 15.5356 0.048807 14.3431C-0.016269 12.4477 -0.016269 10.5523 0.048807 8.65694ZM14.9187 8.81667C14.8753 7.81574 14.7018 6.94259 14.3981 6.19722C14.1161 5.45185 13.7148 4.83426 13.1942 4.34445C12.6736 3.85463 12.0553 3.49259 11.3395 3.25833C10.6454 3.00278 9.87529 2.875 9.0293 2.875C8.18331 2.875 7.4024 3.00278 6.68656 3.25833C5.99242 3.49259 5.38504 3.85463 4.86443 4.34445C4.34383 4.83426 3.93168 5.45185 3.62799 6.19722C3.3243 6.94259 3.16161 7.81574 3.13992 8.81667C3.09653 9.775 3.07484 10.6694 3.07484 11.5C3.07484 12.3306 3.09653 13.225 3.13992 14.1833C3.16161 15.1843 3.3243 16.0574 3.62799 16.8028C3.93168 17.5481 4.34383 18.1657 4.86443 18.6556C5.38504 19.1454 5.99242 19.5181 6.68656 19.7736C7.4024 20.0079 8.18331 20.125 9.0293 20.125C9.87529 20.125 10.6454 20.0079 11.3395 19.7736C12.0553 19.5181 12.6736 19.1454 13.1942 18.6556C13.7148 18.1657 14.1161 17.5481 14.3981 16.8028C14.7018 16.0574 14.8753 15.1843 14.9187 14.1833C14.9621 13.225 14.9838 12.3306 14.9838 11.5C14.9838 10.6694 14.9621 9.775 14.9187 8.81667Z" fill="white"/>
<path d="M37.7563 21.8181C37.7563 22.0523 37.6695 22.2546 37.496 22.425C37.3225 22.5954 37.1164 22.6806 36.8778 22.6806H35.6739C35.4353 22.6806 35.2292 22.5954 35.0556 22.425C34.8821 22.2546 34.7953 22.0523 34.7953 21.8181V13.3847C34.7953 11.7449 34.394 10.5204 33.5914 9.71111C32.7888 8.90185 31.6717 8.49722 30.24 8.49722C28.8734 8.49722 27.7671 8.90185 26.9211 9.71111C26.0968 10.5204 25.6847 11.7449 25.6847 13.3847V21.8181C25.6847 22.0523 25.5979 22.2546 25.4244 22.425C25.2509 22.5954 25.0448 22.6806 24.8062 22.6806H23.6023C23.3637 22.6806 23.1576 22.5954 22.984 22.425C22.8105 22.2546 22.7237 22.0523 22.7237 21.8181V6.93194C22.7237 6.69769 22.8105 6.49537 22.984 6.325C23.1576 6.15463 23.3637 6.06944 23.6023 6.06944H24.8062C25.0448 6.06944 25.2509 6.15463 25.4244 6.325C25.5979 6.49537 25.6847 6.69769 25.6847 6.93194V7.92222C26.0968 7.38982 26.7042 6.9 27.5068 6.45278C28.3311 5.98426 29.4049 5.75 30.7281 5.75C31.7476 5.75 32.6912 5.92037 33.5589 6.26111C34.4266 6.58056 35.1641 7.04907 35.7715 7.66667C36.4006 8.26296 36.8886 9.00833 37.2357 9.90278C37.5828 10.7972 37.7563 11.7981 37.7563 12.9056V21.8181Z" fill="white"/>
<path d="M42.0325 12.7778C42.1193 11.7981 42.3579 10.8824 42.7483 10.0306C43.1388 9.1787 43.6486 8.43333 44.2776 7.79444C44.9067 7.15556 45.6551 6.65509 46.5228 6.29306C47.4121 5.93102 48.3991 5.75 49.4837 5.75C50.6551 5.75 51.6963 5.94167 52.6074 6.325C53.5401 6.68704 54.3319 7.21944 54.9826 7.92222C55.6334 8.625 56.1323 9.47685 56.4794 10.4778C56.8265 11.4787 57 12.5968 57 13.8319V14.6944C57 14.9287 56.9132 15.131 56.7397 15.3014C56.5662 15.4718 56.3601 15.5569 56.1215 15.5569H44.9284V15.7486C44.9718 17.1968 45.4165 18.3148 46.2625 19.1028C47.1301 19.8694 48.2039 20.2528 49.4837 20.2528C50.6768 20.2528 51.5661 20.0931 52.1518 19.7736C52.7592 19.4329 53.2473 19.0602 53.616 18.6556C53.7896 18.4852 53.9414 18.3681 54.0716 18.3042C54.2017 18.2403 54.397 18.2083 54.6573 18.2083H55.6334C55.872 18.2083 56.0889 18.2935 56.2842 18.4639C56.4794 18.6343 56.5553 18.8366 56.5119 19.0708C56.4468 19.4542 56.2625 19.8801 55.9588 20.3486C55.6551 20.7958 55.2104 21.2218 54.6247 21.6264C54.0607 22.0097 53.3449 22.3398 52.4772 22.6167C51.6312 22.8722 50.6334 23 49.4837 23C48.3991 23 47.423 22.819 46.5553 22.4569C45.6876 22.0736 44.9284 21.5625 44.2776 20.9236C43.6486 20.2634 43.1388 19.4968 42.7483 18.6236C42.3579 17.7292 42.1193 16.7602 42.0325 15.7167C41.924 14.737 41.924 13.7574 42.0325 12.7778ZM44.9284 12.8736H54.0716V12.7778C54.0716 11.4787 53.6486 10.4458 52.8026 9.67917C51.9783 8.8912 50.872 8.49722 49.4837 8.49722C48.8546 8.49722 48.269 8.6037 47.7267 8.81667C47.1844 9.00833 46.7071 9.29583 46.295 9.67917C45.8828 10.0412 45.5575 10.4884 45.3189 11.0208C45.0802 11.5532 44.9501 12.1389 44.9284 12.7778V12.8736Z" fill="white"/>
<path d="M63.1704 8.89333C63.1266 9.86 63.1047 10.7622 63.1047 11.6C63.1047 12.4378 63.1266 13.34 63.1704 14.3067C63.2361 16.0896 63.7837 17.5396 64.8131 18.6567C65.8644 19.7522 67.3647 20.3 69.314 20.3C70.3653 20.3 71.2524 20.1711 71.9752 19.9133C72.698 19.6556 73.2893 19.3226 73.7493 18.9144C74.2311 18.5063 74.5925 18.0444 74.8335 17.5289C75.0963 16.9919 75.2934 16.4548 75.4248 15.9178C75.4686 15.6815 75.5781 15.5096 75.7534 15.4022C75.9286 15.2733 76.1038 15.2089 76.279 15.2089H77.7903C77.9874 15.2089 78.1517 15.2841 78.2831 15.4344C78.4364 15.5633 78.5131 15.7244 78.5131 15.9178C78.4912 16.6267 78.305 17.4 77.9546 18.2378C77.6041 19.0756 77.0566 19.8704 76.3119 20.6222C75.5891 21.3526 74.6473 21.9648 73.4865 22.4589C72.3475 22.953 70.9567 23.2 69.314 23.2C67.8904 23.2 66.62 22.9852 65.503 22.5556C64.386 22.1044 63.4223 21.4922 62.6119 20.7189C61.8234 19.9456 61.2101 19.0326 60.7721 17.98C60.334 16.9059 60.0931 15.7352 60.0493 14.4678C59.9836 12.5559 59.9836 10.6441 60.0493 8.73222C60.0931 7.4863 60.334 6.3263 60.7721 5.25222C61.2101 4.17815 61.8234 3.25445 62.6119 2.48111C63.4223 1.70778 64.386 1.1063 65.503 0.676668C66.62 0.225556 67.8904 0 69.314 0C70.9567 0 72.3475 0.247037 73.4865 0.741111C74.6473 1.23519 75.5891 1.85815 76.3119 2.61C77.0566 3.34037 77.6041 4.12444 77.9546 4.96222C78.305 5.8 78.4912 6.57333 78.5131 7.28222C78.5131 7.47556 78.4364 7.64741 78.2831 7.79778C78.1517 7.92667 77.9874 7.99111 77.7903 7.99111H76.279C76.1038 7.99111 75.9286 7.93741 75.7534 7.83C75.5781 7.70111 75.4686 7.51852 75.4248 7.28222C75.2934 6.74519 75.0963 6.21889 74.8335 5.70333C74.5925 5.1663 74.2311 4.6937 73.7493 4.28556C73.2893 3.87741 72.698 3.54444 71.9752 3.28667C71.2524 3.02889 70.3653 2.9 69.314 2.9C67.3647 2.9 65.8644 3.45852 64.8131 4.57556C63.7837 5.67111 63.2361 7.11037 63.1704 8.89333Z" fill="#73DEF1"/>
<path d="M81.5682 18.6567C81.5682 17.7974 81.7434 17.0456 82.0939 16.4011C82.4443 15.7567 82.9262 15.2089 83.5394 14.7578C84.1527 14.3067 84.8645 13.9415 85.6749 13.6622C86.5072 13.383 87.3833 13.1681 88.3032 13.0178L92.9356 12.2767V11.8578C92.9356 10.7622 92.5633 9.94593 91.8186 9.40889C91.0958 8.85037 90.1868 8.57111 89.0917 8.57111C88.128 8.57111 87.3943 8.74296 86.8905 9.08667C86.4087 9.43037 85.9925 9.83852 85.6421 10.3111C85.5107 10.483 85.3683 10.6011 85.215 10.6656C85.0617 10.73 84.8536 10.7622 84.5908 10.7622H83.6051C83.3642 10.7622 83.1452 10.6763 82.9481 10.5044C82.7728 10.3326 82.6962 10.1285 82.7181 9.89222C82.7619 9.41963 82.9481 8.9363 83.2766 8.44222C83.627 7.94815 84.087 7.50778 84.6565 7.12111C85.2478 6.73444 85.9159 6.42296 86.6605 6.18667C87.4271 5.92889 88.2375 5.8 89.0917 5.8C90.0773 5.8 90.9863 5.93963 91.8186 6.21889C92.6728 6.49815 93.3955 6.9063 93.9869 7.44333C94.6002 7.98037 95.0711 8.6463 95.3996 9.44111C95.7501 10.2359 95.9253 11.1489 95.9253 12.18V22.0078C95.9253 22.2441 95.8377 22.4481 95.6625 22.62C95.4872 22.7919 95.2792 22.8778 95.0382 22.8778H93.8227C93.5817 22.8778 93.3736 22.7919 93.1984 22.62C93.0232 22.4481 92.9356 22.2441 92.9356 22.0078V20.6867C92.7385 21.0948 92.4318 21.46 92.0157 21.7822C91.5995 22.083 91.1177 22.3407 90.5701 22.5556C90.0445 22.7704 89.486 22.9315 88.8946 23.0389C88.3251 23.1463 87.7885 23.2 87.2848 23.2C86.4306 23.2 85.6421 23.0819 84.9193 22.8456C84.2184 22.6093 83.6161 22.2978 83.1123 21.9111C82.6305 21.503 82.2472 21.0196 81.9625 20.4611C81.6996 19.9026 81.5682 19.3011 81.5682 18.6567ZM87.6133 20.4289C88.4018 20.4289 89.1246 20.3107 89.7816 20.0744C90.4387 19.8381 90.9972 19.5159 91.4572 19.1078C91.939 18.6781 92.3004 18.1733 92.5414 17.5933C92.8042 17.0133 92.9356 16.3689 92.9356 15.66V14.8544L89.0589 15.4667C87.679 15.6815 86.5839 16.0252 85.7735 16.4978C84.9631 16.9704 84.5579 17.5826 84.5579 18.3344C84.5579 18.5707 84.6127 18.807 84.7222 19.0433C84.8317 19.2796 85.0069 19.5052 85.2478 19.72C85.4888 19.9348 85.7954 20.1067 86.1677 20.2356C86.562 20.3644 87.0438 20.4289 87.6133 20.4289Z" fill="#73DEF1"/>
<path d="M109.129 23.2C107.771 23.2 106.687 22.9744 105.877 22.5233C105.066 22.0507 104.453 21.5459 104.037 21.0089V28.13C104.037 28.3663 103.949 28.5704 103.774 28.7422C103.599 28.9141 103.391 29 103.15 29H101.934C101.693 29 101.485 28.9141 101.31 28.7422C101.135 28.5704 101.047 28.3663 101.047 28.13V6.99222C101.047 6.75593 101.135 6.55185 101.31 6.38C101.485 6.20815 101.693 6.12222 101.934 6.12222H103.15C103.391 6.12222 103.599 6.20815 103.774 6.38C103.949 6.55185 104.037 6.75593 104.037 6.99222V7.99111C104.475 7.41111 105.099 6.9063 105.909 6.47667C106.72 6.02556 107.793 5.8 109.129 5.8C110.159 5.8 111.111 5.98259 111.987 6.34778C112.885 6.69148 113.663 7.1963 114.32 7.86222C114.977 8.52815 115.503 9.3337 115.897 10.2789C116.291 11.2241 116.521 12.2874 116.587 13.4689C116.609 13.7911 116.62 14.1456 116.62 14.5322C116.62 14.8974 116.609 15.2411 116.587 15.5633C116.521 16.7448 116.291 17.8081 115.897 18.7533C115.503 19.6985 114.977 20.5041 114.32 21.17C113.663 21.8144 112.885 22.3193 111.987 22.6844C111.111 23.0281 110.159 23.2 109.129 23.2ZM104.037 13.1144C104.015 13.4367 104.004 13.8663 104.004 14.4033C104.004 14.9189 104.015 15.3378 104.037 15.66C104.103 17.1852 104.562 18.3667 105.417 19.2044C106.293 20.0207 107.421 20.4289 108.801 20.4289C110.246 20.4289 111.385 19.9778 112.217 19.0756C113.05 18.1733 113.51 16.9489 113.597 15.4022C113.619 14.8007 113.619 14.1993 113.597 13.5978C113.51 12.0511 113.05 10.8267 112.217 9.92445C111.385 9.02222 110.246 8.57111 108.801 8.57111C107.443 8.57111 106.326 8.97926 105.45 9.79556C104.573 10.6119 104.103 11.7181 104.037 13.1144Z" fill="#73DEF1"/>
<path d="M124.001 22.0078C124.001 22.2441 123.913 22.4481 123.738 22.62C123.563 22.7919 123.354 22.8778 123.114 22.8778H121.898C121.657 22.8778 121.449 22.7919 121.274 22.62C121.099 22.4481 121.011 22.2441 121.011 22.0078V6.99222C121.011 6.75593 121.099 6.55185 121.274 6.38C121.449 6.20815 121.657 6.12222 121.898 6.12222H123.114C123.354 6.12222 123.563 6.20815 123.738 6.38C123.913 6.55185 124.001 6.75593 124.001 6.99222V22.0078ZM124.329 2.70667C124.329 2.94296 124.242 3.14704 124.066 3.31889C123.891 3.49074 123.683 3.57667 123.442 3.57667H121.569C121.328 3.57667 121.12 3.49074 120.945 3.31889C120.77 3.14704 120.682 2.94296 120.682 2.70667V0.87C120.682 0.633704 120.77 0.42963 120.945 0.257778C121.12 0.0859261 121.328 0 121.569 0H123.442C123.683 0 123.891 0.0859261 124.066 0.257778C124.242 0.42963 124.329 0.633704 124.329 0.87V2.70667Z" fill="#73DEF1"/>
<path d="M133.732 17.2389C133.732 17.647 133.765 18.0337 133.831 18.3989C133.918 18.7426 134.061 19.0433 134.258 19.3011C134.455 19.5589 134.729 19.763 135.079 19.9133C135.452 20.0422 135.922 20.1067 136.492 20.1067H138.233C138.474 20.1067 138.682 20.1926 138.857 20.3644C139.033 20.5363 139.12 20.7404 139.12 20.9767V22.0078C139.12 22.2441 139.033 22.4481 138.857 22.62C138.682 22.7919 138.474 22.8778 138.233 22.8778H136.163C134.258 22.8778 132.878 22.3944 132.024 21.4278C131.17 20.4611 130.743 19.0648 130.743 17.2389V8.89333H128.311C128.07 8.89333 127.862 8.80741 127.687 8.63556C127.512 8.4637 127.424 8.25963 127.424 8.02333V6.99222C127.424 6.75593 127.512 6.55185 127.687 6.38C127.862 6.20815 128.07 6.12222 128.311 6.12222H130.743V0.87C130.743 0.633704 130.83 0.42963 131.005 0.257778C131.181 0.0859261 131.389 0 131.63 0H132.845C133.086 0 133.294 0.0859261 133.469 0.257778C133.645 0.42963 133.732 0.633704 133.732 0.87V6.12222H137.905C138.146 6.12222 138.354 6.20815 138.529 6.38C138.704 6.55185 138.792 6.75593 138.792 6.99222V8.02333C138.792 8.25963 138.704 8.4637 138.529 8.63556C138.354 8.80741 138.146 8.89333 137.905 8.89333H133.732V17.2389Z" fill="#73DEF1"/>
<path d="M141.531 18.6567C141.531 17.7974 141.707 17.0456 142.057 16.4011C142.407 15.7567 142.889 15.2089 143.503 14.7578C144.116 14.3067 144.828 13.9415 145.638 13.6622C146.47 13.383 147.346 13.1681 148.266 13.0178L152.899 12.2767V11.8578C152.899 10.7622 152.526 9.94593 151.782 9.40889C151.059 8.85037 150.15 8.57111 149.055 8.57111C148.091 8.57111 147.357 8.74296 146.854 9.08667C146.372 9.43037 145.956 9.83852 145.605 10.3111C145.474 10.483 145.331 10.6011 145.178 10.6656C145.025 10.73 144.817 10.7622 144.554 10.7622H143.568C143.327 10.7622 143.108 10.6763 142.911 10.5044C142.736 10.3326 142.659 10.1285 142.681 9.89222C142.725 9.41963 142.911 8.9363 143.24 8.44222C143.59 7.94815 144.05 7.50778 144.62 7.12111C145.211 6.73444 145.879 6.42296 146.624 6.18667C147.39 5.92889 148.201 5.8 149.055 5.8C150.041 5.8 150.949 5.93963 151.782 6.21889C152.636 6.49815 153.359 6.9063 153.95 7.44333C154.563 7.98037 155.034 8.6463 155.363 9.44111C155.713 10.2359 155.888 11.1489 155.888 12.18V22.0078C155.888 22.2441 155.801 22.4481 155.626 22.62C155.45 22.7919 155.242 22.8778 155.001 22.8778H153.786C153.545 22.8778 153.337 22.7919 153.162 22.62C152.986 22.4481 152.899 22.2441 152.899 22.0078V20.6867C152.702 21.0948 152.395 21.46 151.979 21.7822C151.563 22.083 151.081 22.3407 150.533 22.5556C150.008 22.7704 149.449 22.9315 148.858 23.0389C148.288 23.1463 147.752 23.2 147.248 23.2C146.394 23.2 145.605 23.0819 144.882 22.8456C144.182 22.6093 143.579 22.2978 143.076 21.9111C142.594 21.503 142.21 21.0196 141.926 20.4611C141.663 19.9026 141.531 19.3011 141.531 18.6567ZM147.576 20.4289C148.365 20.4289 149.088 20.3107 149.745 20.0744C150.402 19.8381 150.96 19.5159 151.42 19.1078C151.902 18.6781 152.264 18.1733 152.505 17.5933C152.767 17.0133 152.899 16.3689 152.899 15.66V14.8544L149.022 15.4667C147.642 15.6815 146.547 16.0252 145.737 16.4978C144.926 16.9704 144.521 17.5826 144.521 18.3344C144.521 18.5707 144.576 18.807 144.685 19.0433C144.795 19.2796 144.97 19.5052 145.211 19.72C145.452 19.9348 145.759 20.1067 146.131 20.2356C146.525 20.3644 147.007 20.4289 147.576 20.4289Z" fill="#73DEF1"/>
<path d="M164 22.0078C164 22.2441 163.912 22.4481 163.737 22.62C163.562 22.7919 163.354 22.8778 163.113 22.8778H161.897C161.656 22.8778 161.448 22.7919 161.273 22.62C161.098 22.4481 161.01 22.2441 161.01 22.0078V0.87C161.01 0.633704 161.098 0.42963 161.273 0.257778C161.448 0.0859261 161.656 0 161.897 0H163.113C163.354 0 163.562 0.0859261 163.737 0.257778C163.912 0.42963 164 0.633704 164 0.87V22.0078Z" fill="#73DEF1"/>
</svg>
