<svg width="211" height="35" viewBox="0 0 211 35" fill="none" xmlns="http://www.w3.org/2000/svg">
<path d="M0.048807 14.6569C0.0704991 13.4644 0.276573 12.3463 0.667029 11.3028C1.07918 10.238 1.66486 9.32222 2.42408 8.55555C3.1833 7.76759 4.11606 7.15 5.22235 6.70278C6.32864 6.23426 7.59763 6 9.0293 6C10.461 6 11.73 6.23426 12.8362 6.70278C13.9425 7.15 14.8753 7.76759 15.6345 8.55555C16.3937 9.32222 16.9686 10.238 17.359 11.3028C17.7712 12.3463 17.9881 13.4644 18.0098 14.6569C18.0749 16.5523 18.0749 18.4477 18.0098 20.3431C17.9664 21.5356 17.7386 22.6644 17.3265 23.7292C16.936 24.7727 16.3612 25.6884 15.602 26.4764C14.8428 27.2644 13.91 27.8819 12.8037 28.3292C11.7191 28.7764 10.461 29 9.0293 29C7.59763 29 6.32864 28.7764 5.22235 28.3292C4.13775 27.8819 3.21584 27.2644 2.45662 26.4764C1.6974 25.6884 1.11172 24.7727 0.699567 23.7292C0.309111 22.6644 0.092191 21.5356 0.048807 20.3431C-0.016269 18.4477 -0.016269 16.5523 0.048807 14.6569ZM14.9187 14.8167C14.8753 13.8157 14.7018 12.9426 14.3981 12.1972C14.1161 11.4519 13.7148 10.8343 13.1942 10.3444C12.6736 9.85463 12.0553 9.49259 11.3395 9.25833C10.6454 9.00278 9.87529 8.875 9.0293 8.875C8.18331 8.875 7.4024 9.00278 6.68656 9.25833C5.99242 9.49259 5.38504 9.85463 4.86443 10.3444C4.34383 10.8343 3.93168 11.4519 3.62799 12.1972C3.3243 12.9426 3.16161 13.8157 3.13992 14.8167C3.09653 15.775 3.07484 16.6694 3.07484 17.5C3.07484 18.3306 3.09653 19.225 3.13992 20.1833C3.16161 21.1843 3.3243 22.0574 3.62799 22.8028C3.93168 23.5481 4.34383 24.1657 4.86443 24.6556C5.38504 25.1454 5.99242 25.5181 6.68656 25.7736C7.4024 26.0079 8.18331 26.125 9.0293 26.125C9.87529 26.125 10.6454 26.0079 11.3395 25.7736C12.0553 25.5181 12.6736 25.1454 13.1942 24.6556C13.7148 24.1657 14.1161 23.5481 14.3981 22.8028C14.7018 22.0574 14.8753 21.1843 14.9187 20.1833C14.9621 19.225 14.9838 18.3306 14.9838 17.5C14.9838 16.6694 14.9621 15.775 14.9187 14.8167Z" fill="white"/>
<path d="M37.7563 27.8181C37.7563 28.0523 37.6695 28.2546 37.496 28.425C37.3225 28.5954 37.1164 28.6806 36.8778 28.6806H35.6739C35.4353 28.6806 35.2292 28.5954 35.0556 28.425C34.8821 28.2546 34.7953 28.0523 34.7953 27.8181V19.3847C34.7953 17.7449 34.394 16.5204 33.5914 15.7111C32.7888 14.9019 31.6717 14.4972 30.24 14.4972C28.8734 14.4972 27.7671 14.9019 26.9211 15.7111C26.0968 16.5204 25.6847 17.7449 25.6847 19.3847V27.8181C25.6847 28.0523 25.5979 28.2546 25.4244 28.425C25.2509 28.5954 25.0448 28.6806 24.8062 28.6806H23.6023C23.3637 28.6806 23.1576 28.5954 22.984 28.425C22.8105 28.2546 22.7237 28.0523 22.7237 27.8181V12.9319C22.7237 12.6977 22.8105 12.4954 22.984 12.325C23.1576 12.1546 23.3637 12.0694 23.6023 12.0694H24.8062C25.0448 12.0694 25.2509 12.1546 25.4244 12.325C25.5979 12.4954 25.6847 12.6977 25.6847 12.9319V13.9222C26.0968 13.3898 26.7042 12.9 27.5068 12.4528C28.3311 11.9843 29.4049 11.75 30.7281 11.75C31.7476 11.75 32.6912 11.9204 33.5589 12.2611C34.4266 12.5806 35.1641 13.0491 35.7715 13.6667C36.4006 14.263 36.8886 15.0083 37.2357 15.9028C37.5828 16.7972 37.7563 17.7981 37.7563 18.9056V27.8181Z" fill="white"/>
<path d="M42.0325 18.7778C42.1193 17.7981 42.3579 16.8824 42.7483 16.0306C43.1388 15.1787 43.6486 14.4333 44.2776 13.7944C44.9067 13.1556 45.6551 12.6551 46.5228 12.2931C47.4121 11.931 48.3991 11.75 49.4837 11.75C50.6551 11.75 51.6963 11.9417 52.6074 12.325C53.5401 12.687 54.3319 13.2194 54.9826 13.9222C55.6334 14.625 56.1323 15.4769 56.4794 16.4778C56.8265 17.4787 57 18.5968 57 19.8319V20.6944C57 20.9287 56.9132 21.131 56.7397 21.3014C56.5662 21.4718 56.3601 21.5569 56.1215 21.5569H44.9284V21.7486C44.9718 23.1968 45.4165 24.3148 46.2625 25.1028C47.1301 25.8694 48.2039 26.2528 49.4837 26.2528C50.6768 26.2528 51.5661 26.0931 52.1518 25.7736C52.7592 25.4329 53.2473 25.0602 53.616 24.6556C53.7896 24.4852 53.9414 24.3681 54.0716 24.3042C54.2017 24.2403 54.397 24.2083 54.6573 24.2083H55.6334C55.872 24.2083 56.0889 24.2935 56.2842 24.4639C56.4794 24.6343 56.5553 24.8366 56.5119 25.0708C56.4468 25.4542 56.2625 25.8801 55.9588 26.3486C55.6551 26.7958 55.2104 27.2218 54.6247 27.6264C54.0607 28.0097 53.3449 28.3398 52.4772 28.6167C51.6312 28.8722 50.6334 29 49.4837 29C48.3991 29 47.423 28.819 46.5553 28.4569C45.6876 28.0736 44.9284 27.5625 44.2776 26.9236C43.6486 26.2634 43.1388 25.4968 42.7483 24.6236C42.3579 23.7292 42.1193 22.7602 42.0325 21.7167C41.924 20.737 41.924 19.7574 42.0325 18.7778ZM44.9284 18.8736H54.0716V18.7778C54.0716 17.4787 53.6486 16.4458 52.8026 15.6792C51.9783 14.8912 50.872 14.4972 49.4837 14.4972C48.8546 14.4972 48.269 14.6037 47.7267 14.8167C47.1844 15.0083 46.7071 15.2958 46.295 15.6792C45.8828 16.0412 45.5575 16.4884 45.3189 17.0208C45.0802 17.5532 44.9501 18.1389 44.9284 18.7778V18.8736Z" fill="white"/>
<path d="M63.1704 14.8933C63.1266 15.86 63.1047 16.7622 63.1047 17.6C63.1047 18.4378 63.1266 19.34 63.1704 20.3067C63.2361 22.0896 63.7837 23.5396 64.8131 24.6567C65.8644 25.7522 67.3647 26.3 69.314 26.3C70.3653 26.3 71.2524 26.1711 71.9752 25.9133C72.698 25.6556 73.2893 25.3226 73.7493 24.9144C74.2311 24.5063 74.5925 24.0444 74.8335 23.5289C75.0963 22.9919 75.2934 22.4548 75.4248 21.9178C75.4686 21.6815 75.5781 21.5096 75.7534 21.4022C75.9286 21.2733 76.1038 21.2089 76.279 21.2089H77.7903C77.9874 21.2089 78.1517 21.2841 78.2831 21.4344C78.4364 21.5633 78.5131 21.7244 78.5131 21.9178C78.4912 22.6267 78.305 23.4 77.9546 24.2378C77.6041 25.0756 77.0566 25.8704 76.3119 26.6222C75.5891 27.3526 74.6473 27.9648 73.4865 28.4589C72.3475 28.953 70.9567 29.2 69.314 29.2C67.8904 29.2 66.62 28.9852 65.503 28.5556C64.386 28.1044 63.4223 27.4922 62.6119 26.7189C61.8234 25.9456 61.2101 25.0326 60.7721 23.98C60.334 22.9059 60.0931 21.7352 60.0493 20.4678C59.9836 18.5559 59.9836 16.6441 60.0493 14.7322C60.0931 13.4863 60.334 12.3263 60.7721 11.2522C61.2101 10.1781 61.8234 9.25445 62.6119 8.48111C63.4223 7.70778 64.386 7.1063 65.503 6.67667C66.62 6.22556 67.8904 6 69.314 6C70.9567 6 72.3475 6.24704 73.4865 6.74111C74.6473 7.23519 75.5891 7.85815 76.3119 8.61C77.0566 9.34037 77.6041 10.1244 77.9546 10.9622C78.305 11.8 78.4912 12.5733 78.5131 13.2822C78.5131 13.4756 78.4364 13.6474 78.2831 13.7978C78.1517 13.9267 77.9874 13.9911 77.7903 13.9911H76.279C76.1038 13.9911 75.9286 13.9374 75.7534 13.83C75.5781 13.7011 75.4686 13.5185 75.4248 13.2822C75.2934 12.7452 75.0963 12.2189 74.8335 11.7033C74.5925 11.1663 74.2311 10.6937 73.7493 10.2856C73.2893 9.87741 72.698 9.54444 71.9752 9.28667C71.2524 9.02889 70.3653 8.9 69.314 8.9C67.3647 8.9 65.8644 9.45852 64.8131 10.5756C63.7837 11.6711 63.2361 13.1104 63.1704 14.8933Z" fill="#73DEF1"/>
<path d="M81.5682 24.6567C81.5682 23.7974 81.7434 23.0456 82.0939 22.4011C82.4443 21.7567 82.9262 21.2089 83.5394 20.7578C84.1527 20.3067 84.8645 19.9415 85.6749 19.6622C86.5072 19.383 87.3833 19.1681 88.3032 19.0178L92.9356 18.2767V17.8578C92.9356 16.7622 92.5633 15.9459 91.8186 15.4089C91.0958 14.8504 90.1868 14.5711 89.0917 14.5711C88.128 14.5711 87.3943 14.743 86.8905 15.0867C86.4087 15.4304 85.9925 15.8385 85.6421 16.3111C85.5107 16.483 85.3683 16.6011 85.215 16.6656C85.0617 16.73 84.8536 16.7622 84.5908 16.7622H83.6051C83.3642 16.7622 83.1452 16.6763 82.9481 16.5044C82.7728 16.3326 82.6962 16.1285 82.7181 15.8922C82.7619 15.4196 82.9481 14.9363 83.2766 14.4422C83.627 13.9481 84.087 13.5078 84.6565 13.1211C85.2478 12.7344 85.9159 12.423 86.6605 12.1867C87.4271 11.9289 88.2375 11.8 89.0917 11.8C90.0773 11.8 90.9863 11.9396 91.8186 12.2189C92.6728 12.4981 93.3955 12.9063 93.9869 13.4433C94.6002 13.9804 95.0711 14.6463 95.3996 15.4411C95.7501 16.2359 95.9253 17.1489 95.9253 18.18V28.0078C95.9253 28.2441 95.8377 28.4481 95.6625 28.62C95.4872 28.7919 95.2792 28.8778 95.0382 28.8778H93.8227C93.5817 28.8778 93.3736 28.7919 93.1984 28.62C93.0232 28.4481 92.9356 28.2441 92.9356 28.0078V26.6867C92.7385 27.0948 92.4318 27.46 92.0157 27.7822C91.5995 28.083 91.1177 28.3407 90.5701 28.5556C90.0445 28.7704 89.486 28.9315 88.8946 29.0389C88.3251 29.1463 87.7885 29.2 87.2848 29.2C86.4306 29.2 85.6421 29.0819 84.9193 28.8456C84.2184 28.6093 83.6161 28.2978 83.1123 27.9111C82.6305 27.503 82.2472 27.0196 81.9625 26.4611C81.6996 25.9026 81.5682 25.3011 81.5682 24.6567ZM87.6133 26.4289C88.4018 26.4289 89.1246 26.3107 89.7816 26.0744C90.4387 25.8381 90.9972 25.5159 91.4572 25.1078C91.939 24.6781 92.3004 24.1733 92.5414 23.5933C92.8042 23.0133 92.9356 22.3689 92.9356 21.66V20.8544L89.0589 21.4667C87.679 21.6815 86.5839 22.0252 85.7735 22.4978C84.9631 22.9704 84.5579 23.5826 84.5579 24.3344C84.5579 24.5707 84.6127 24.807 84.7222 25.0433C84.8317 25.2796 85.0069 25.5052 85.2478 25.72C85.4888 25.9348 85.7954 26.1067 86.1677 26.2356C86.562 26.3644 87.0438 26.4289 87.6133 26.4289Z" fill="#73DEF1"/>
<path d="M109.129 29.2C107.771 29.2 106.687 28.9744 105.877 28.5233C105.066 28.0507 104.453 27.5459 104.037 27.0089V34.13C104.037 34.3663 103.949 34.5704 103.774 34.7422C103.599 34.9141 103.391 35 103.15 35H101.934C101.693 35 101.485 34.9141 101.31 34.7422C101.135 34.5704 101.047 34.3663 101.047 34.13V12.9922C101.047 12.7559 101.135 12.5519 101.31 12.38C101.485 12.2081 101.693 12.1222 101.934 12.1222H103.15C103.391 12.1222 103.599 12.2081 103.774 12.38C103.949 12.5519 104.037 12.7559 104.037 12.9922V13.9911C104.475 13.4111 105.099 12.9063 105.909 12.4767C106.72 12.0256 107.793 11.8 109.129 11.8C110.159 11.8 111.111 11.9826 111.987 12.3478C112.885 12.6915 113.663 13.1963 114.32 13.8622C114.977 14.5281 115.503 15.3337 115.897 16.2789C116.291 17.2241 116.521 18.2874 116.587 19.4689C116.609 19.7911 116.62 20.1456 116.62 20.5322C116.62 20.8974 116.609 21.2411 116.587 21.5633C116.521 22.7448 116.291 23.8081 115.897 24.7533C115.503 25.6985 114.977 26.5041 114.32 27.17C113.663 27.8144 112.885 28.3193 111.987 28.6844C111.111 29.0281 110.159 29.2 109.129 29.2ZM104.037 19.1144C104.015 19.4367 104.004 19.8663 104.004 20.4033C104.004 20.9189 104.015 21.3378 104.037 21.66C104.103 23.1852 104.562 24.3667 105.417 25.2044C106.293 26.0207 107.421 26.4289 108.801 26.4289C110.246 26.4289 111.385 25.9778 112.217 25.0756C113.05 24.1733 113.51 22.9489 113.597 21.4022C113.619 20.8007 113.619 20.1993 113.597 19.5978C113.51 18.0511 113.05 16.8267 112.217 15.9244C111.385 15.0222 110.246 14.5711 108.801 14.5711C107.443 14.5711 106.326 14.9793 105.45 15.7956C104.573 16.6119 104.103 17.7181 104.037 19.1144Z" fill="#73DEF1"/>
<path d="M124.001 28.0078C124.001 28.2441 123.913 28.4481 123.738 28.62C123.563 28.7919 123.354 28.8778 123.114 28.8778H121.898C121.657 28.8778 121.449 28.7919 121.274 28.62C121.099 28.4481 121.011 28.2441 121.011 28.0078V12.9922C121.011 12.7559 121.099 12.5519 121.274 12.38C121.449 12.2081 121.657 12.1222 121.898 12.1222H123.114C123.354 12.1222 123.563 12.2081 123.738 12.38C123.913 12.5519 124.001 12.7559 124.001 12.9922V28.0078ZM124.329 8.70667C124.329 8.94296 124.242 9.14704 124.066 9.31889C123.891 9.49074 123.683 9.57667 123.442 9.57667H121.569C121.328 9.57667 121.12 9.49074 120.945 9.31889C120.77 9.14704 120.682 8.94296 120.682 8.70667V6.87C120.682 6.6337 120.77 6.42963 120.945 6.25778C121.12 6.08593 121.328 6 121.569 6H123.442C123.683 6 123.891 6.08593 124.066 6.25778C124.242 6.42963 124.329 6.6337 124.329 6.87V8.70667Z" fill="#73DEF1"/>
<path d="M133.732 23.2389C133.732 23.647 133.765 24.0337 133.831 24.3989C133.918 24.7426 134.061 25.0433 134.258 25.3011C134.455 25.5589 134.729 25.763 135.079 25.9133C135.452 26.0422 135.922 26.1067 136.492 26.1067H138.233C138.474 26.1067 138.682 26.1926 138.857 26.3644C139.033 26.5363 139.12 26.7404 139.12 26.9767V28.0078C139.12 28.2441 139.033 28.4481 138.857 28.62C138.682 28.7919 138.474 28.8778 138.233 28.8778H136.163C134.258 28.8778 132.878 28.3944 132.024 27.4278C131.17 26.4611 130.743 25.0648 130.743 23.2389V14.8933H128.311C128.07 14.8933 127.862 14.8074 127.687 14.6356C127.512 14.4637 127.424 14.2596 127.424 14.0233V12.9922C127.424 12.7559 127.512 12.5519 127.687 12.38C127.862 12.2081 128.07 12.1222 128.311 12.1222H130.743V6.87C130.743 6.6337 130.83 6.42963 131.005 6.25778C131.181 6.08593 131.389 6 131.63 6H132.845C133.086 6 133.294 6.08593 133.469 6.25778C133.645 6.42963 133.732 6.6337 133.732 6.87V12.1222H137.905C138.146 12.1222 138.354 12.2081 138.529 12.38C138.704 12.5519 138.792 12.7559 138.792 12.9922V14.0233C138.792 14.2596 138.704 14.4637 138.529 14.6356C138.354 14.8074 138.146 14.8933 137.905 14.8933H133.732V23.2389Z" fill="#73DEF1"/>
<path d="M141.531 24.6567C141.531 23.7974 141.707 23.0456 142.057 22.4011C142.407 21.7567 142.889 21.2089 143.503 20.7578C144.116 20.3067 144.828 19.9415 145.638 19.6622C146.47 19.383 147.346 19.1681 148.266 19.0178L152.899 18.2767V17.8578C152.899 16.7622 152.526 15.9459 151.782 15.4089C151.059 14.8504 150.15 14.5711 149.055 14.5711C148.091 14.5711 147.357 14.743 146.854 15.0867C146.372 15.4304 145.956 15.8385 145.605 16.3111C145.474 16.483 145.331 16.6011 145.178 16.6656C145.025 16.73 144.817 16.7622 144.554 16.7622H143.568C143.327 16.7622 143.108 16.6763 142.911 16.5044C142.736 16.3326 142.659 16.1285 142.681 15.8922C142.725 15.4196 142.911 14.9363 143.24 14.4422C143.59 13.9481 144.05 13.5078 144.62 13.1211C145.211 12.7344 145.879 12.423 146.624 12.1867C147.39 11.9289 148.201 11.8 149.055 11.8C150.041 11.8 150.949 11.9396 151.782 12.2189C152.636 12.4981 153.359 12.9063 153.95 13.4433C154.563 13.9804 155.034 14.6463 155.363 15.4411C155.713 16.2359 155.888 17.1489 155.888 18.18V28.0078C155.888 28.2441 155.801 28.4481 155.626 28.62C155.45 28.7919 155.242 28.8778 155.001 28.8778H153.786C153.545 28.8778 153.337 28.7919 153.162 28.62C152.986 28.4481 152.899 28.2441 152.899 28.0078V26.6867C152.702 27.0948 152.395 27.46 151.979 27.7822C151.563 28.083 151.081 28.3407 150.533 28.5556C150.008 28.7704 149.449 28.9315 148.858 29.0389C148.288 29.1463 147.752 29.2 147.248 29.2C146.394 29.2 145.605 29.0819 144.882 28.8456C144.182 28.6093 143.579 28.2978 143.076 27.9111C142.594 27.503 142.21 27.0196 141.926 26.4611C141.663 25.9026 141.531 25.3011 141.531 24.6567ZM147.576 26.4289C148.365 26.4289 149.088 26.3107 149.745 26.0744C150.402 25.8381 150.96 25.5159 151.42 25.1078C151.902 24.6781 152.264 24.1733 152.505 23.5933C152.767 23.0133 152.899 22.3689 152.899 21.66V20.8544L149.022 21.4667C147.642 21.6815 146.547 22.0252 145.737 22.4978C144.926 22.9704 144.521 23.5826 144.521 24.3344C144.521 24.5707 144.576 24.807 144.685 25.0433C144.795 25.2796 144.97 25.5052 145.211 25.72C145.452 25.9348 145.759 26.1067 146.131 26.2356C146.525 26.3644 147.007 26.4289 147.576 26.4289Z" fill="#73DEF1"/>
<path d="M164 28.0078C164 28.2441 163.912 28.4481 163.737 28.62C163.562 28.7919 163.354 28.8778 163.113 28.8778H161.897C161.656 28.8778 161.448 28.7919 161.273 28.62C161.098 28.4481 161.01 28.2441 161.01 28.0078V6.87C161.01 6.6337 161.098 6.42963 161.273 6.25778C161.448 6.08593 161.656 6 161.897 6H163.113C163.354 6 163.562 6.08593 163.737 6.25778C163.912 6.42963 164 6.6337 164 6.87V28.0078Z" fill="#73DEF1"/>
<rect x="177" width="34" height="35" rx="10" fill="#73DEF1"/>
<rect x="177" width="34" height="35" rx="10" fill="url(#paint0_linear_141_42)"/>
<path d="M199.768 8.17902C199.573 8.37594 199.546 8.55496 199.679 8.81453C199.768 8.97565 199.883 8.9846 201.542 8.9846C202.517 8.9846 203.315 9.0204 203.315 9.05621C203.315 9.09201 201.568 11.1507 199.44 13.6301L195.565 18.1324L195.077 17.6133C194.802 17.3179 194.102 16.575 193.516 15.9395C192.496 14.8474 192.266 14.6863 192 14.8743C191.947 14.9101 190.12 17.0494 187.938 19.6272C184.365 23.852 183.975 24.3443 184.001 24.595C184.019 24.8008 184.09 24.8904 184.276 24.953C184.445 25.0157 184.578 25.0157 184.675 24.953C184.755 24.8993 186.502 22.8764 188.55 20.4507L192.275 16.0469L193.809 17.667C195.086 19.0007 195.387 19.2781 195.6 19.2781C195.813 19.2781 196.354 18.6963 199.91 14.57L203.98 9.86179L204.025 11.6162C204.06 13.0483 204.095 13.3974 204.202 13.4601C204.415 13.5943 204.69 13.5675 204.849 13.3884C204.982 13.2452 205 12.923 205 10.7032C205 8.30433 204.991 8.17902 204.832 8.08951C204.725 8.0358 203.759 8 202.304 8C200.061 8 199.937 8.00895 199.768 8.17902Z" fill="white"/>
<defs>
<linearGradient id="paint0_linear_141_42" x1="194" y1="0" x2="219.963" y2="40.6336" gradientUnits="userSpaceOnUse">
<stop stop-color="#75DFF1"/>
<stop offset="1" stop-color="#04C7E9"/>
</linearGradient>
</defs>
</svg>
