<svg width="16" height="16" viewBox="0 0 16 16" fill="none" xmlns="http://www.w3.org/2000/svg">
<rect width="16" height="16" rx="4" fill="white"/>
<rect width="16" height="16" rx="4" fill="url(#paint0_linear_1_2)"/>
<path d="M10.7577 5.06318C10.6741 5.13268 10.6627 5.19587 10.7197 5.28748C10.7577 5.34435 10.8071 5.34751 11.5178 5.34751C11.9359 5.34751 12.2779 5.36014 12.2779 5.37278C12.2779 5.38542 11.5292 6.11202 10.6171 6.9871L8.95631 8.57615L8.74729 8.39292C8.62947 8.28867 8.32924 8.02646 8.07841 7.80216C7.64135 7.41674 7.54254 7.35988 7.42853 7.42622C7.40572 7.43886 6.62283 8.19389 5.68792 9.10373C4.15633 10.5948 3.98911 10.7686 4.00051 10.857C4.00811 10.9297 4.03852 10.9613 4.11833 10.9834C4.19054 11.0055 4.24754 11.0055 4.28935 10.9834C4.32355 10.9645 5.07224 10.2505 5.95015 9.39437L7.54634 7.84007L8.20382 8.41187C8.75109 8.88259 8.8803 8.98052 8.97151 8.98052C9.06272 8.98052 9.29455 8.77517 10.8185 7.31881L12.5629 5.6571L12.5819 6.27629C12.5972 6.78176 12.6124 6.90496 12.658 6.92708C12.7492 6.97446 12.867 6.96499 12.9354 6.9018C12.9924 6.85126 13 6.73753 13 5.95406C13 5.10741 12.9962 5.06318 12.9278 5.03159C12.8822 5.01264 12.4679 5 11.8447 5C10.8831 5 10.8299 5.00316 10.7577 5.06318Z" fill="white"/>
<defs>
<linearGradient id="paint0_linear_1_2" x1="8" y1="0" x2="19.7209" y2="18.8837" gradientUnits="userSpaceOnUse">
<stop stop-color="#75DFF1"/>
<stop offset="1" stop-color="#04C7E9"/>
</linearGradient>
</defs>
</svg>
